<?xml version="1.0" encoding="UTF-8" standalone="no"?>
<!DOCTYPE svg PUBLIC "-//W3C//DTD SVG 1.1//EN"
 "http://www.w3.org/Graphics/SVG/1.1/DTD/svg11.dtd">
<!-- Generated by graphviz version 2.38.0 (20140413.2041)
 -->
<!-- Title: %3 Pages: 1 -->
<svg width="202pt" height="170pt"
 viewBox="0.00 0.00 201.50 170.12" xmlns="http://www.w3.org/2000/svg" xmlns:xlink="http://www.w3.org/1999/xlink">
<g id="graph0" class="graph" transform="scale(1 1) rotate(0) translate(4 166.125)">
<title>%3</title>
<polygon fill="white" stroke="none" points="-4,4 -4,-166.125 197.5,-166.125 197.5,4 -4,4"/>
<!-- Pos -->
<g id="node1" class="node"><title>Pos</title>
<polygon fill="lightgray" stroke="black" points="146,-162.125 116,-162.125 116,-144.125 146,-144.125 146,-162.125"/>
<text text-anchor="middle" x="131" y="-150.925" font-family="Times New Roman,serif" font-size="9.00">Pos</text>
</g>
<!-- 100 -->
<g id="node7" class="node"><title>100</title>
<ellipse fill="white" stroke="black" cx="74" cy="-86.9117" rx="21.4286" ry="21.4286"/>
<text text-anchor="middle" x="74" y="-84.7117" font-family="Times New Roman,serif" font-size="9.00">100</text>
</g>
<!-- Pos&#45;&gt;100 -->
<g id="edge1" class="edge"><title>Pos&#45;&gt;100</title>
<path fill="none" stroke="red" stroke-width="0.411506" d="M123.781,-143.992C116.43,-135.711 104.692,-122.487 94.459,-110.96"/>
<polygon fill="red" stroke="red" stroke-width="0.411506" points="96.9441,-108.487 87.688,-103.332 91.7091,-113.134 96.9441,-108.487"/>
</g>
<!-- 101 -->
<g id="node8" class="node"><title>101</title>
<ellipse fill="white" stroke="black" cx="134" cy="-86.9117" rx="21.4286" ry="21.4286"/>
<text text-anchor="middle" x="134" y="-84.7117" font-family="Times New Roman,serif" font-size="9.00">101</text>
</g>
<!-- Pos&#45;&gt;101 -->
<g id="edge2" class="edge"><title>Pos&#45;&gt;101</title>
<path fill="none" stroke="green" stroke-width="0.153231" d="M131.38,-143.992C131.686,-137.449 132.135,-127.82 132.577,-118.381"/>
<polygon fill="green" stroke="green" stroke-width="0.153231" points="136.074,-118.52 133.044,-108.367 129.081,-118.193 136.074,-118.52"/>
</g>
<!-- Vel -->
<g id="node2" class="node"><title>Vel</title>
<polygon fill="lightgray" stroke="black" points="193.5,-162.125 164.5,-162.125 164.5,-144.125 193.5,-144.125 193.5,-162.125"/>
<text text-anchor="middle" x="179" y="-150.925" font-family="Times New Roman,serif" font-size="9.00">Vel</text>
</g>
<!-- Vel&#45;&gt;100 -->
<g id="edge3" class="edge"><title>Vel&#45;&gt;100</title>
<path fill="none" stroke="green" stroke-width="0.545291" d="M164.743,-144.113C149.537,-135.486 124.826,-121.232 104,-108.125 102.538,-107.205 101.044,-106.249 99.5423,-105.277"/>
<polygon fill="green" stroke="green" stroke-width="0.545291" points="101.286,-102.233 91.0126,-99.6421 97.4274,-108.074 101.286,-102.233"/>
</g>
<!-- Vel&#45;&gt;101 -->
<g id="edge4" class="edge"><title>Vel&#45;&gt;101</title>
<path fill="none" stroke="red" stroke-width="0.219467" d="M173.301,-143.992C167.852,-136.217 159.348,-124.082 151.643,-113.087"/>
<polygon fill="red" stroke="red" stroke-width="0.219467" points="154.313,-110.799 145.708,-104.618 148.58,-114.816 154.313,-110.799"/>
</g>
<!-- Angle -->
<g id="node3" class="node"><title>Angle</title>
<polygon fill="lightgray" stroke="black" points="38,-162.125 0,-162.125 0,-144.125 38,-144.125 38,-162.125"/>
<text text-anchor="middle" x="19" y="-150.925" font-family="Times New Roman,serif" font-size="9.00">Angle</text>
</g>
<!-- Angle&#45;&gt;100 -->
<g id="edge5" class="edge"><title>Angle&#45;&gt;100</title>
<path fill="none" stroke="green" stroke-width="0.218248" d="M25.9658,-143.992C33.0116,-135.766 44.2355,-122.662 54.0625,-111.189"/>
<polygon fill="green" stroke="green" stroke-width="0.218248" points="56.7271,-113.458 60.5741,-103.587 51.4106,-108.905 56.7271,-113.458"/>
</g>
<!-- Angle&#45;&gt;101 -->
<g id="edge6" class="edge"><title>Angle&#45;&gt;101</title>
<path fill="none" stroke="red" stroke-width="0.290666" d="M35.922,-144.082C53.3021,-135.656 80.989,-121.771 104,-108.125 105.485,-107.244 106.998,-106.319 108.515,-105.37"/>
<polygon fill="red" stroke="red" stroke-width="0.290666" points="110.606,-108.185 117.086,-99.8028 106.793,-102.315 110.606,-108.185"/>
</g>
<!-- VelTip -->
<g id="node4" class="node"><title>VelTip</title>
<polygon fill="lightgray" stroke="black" points="98,-162.125 56,-162.125 56,-144.125 98,-144.125 98,-162.125"/>
<text text-anchor="middle" x="77" y="-150.925" font-family="Times New Roman,serif" font-size="9.00">VelTip</text>
</g>
<!-- VelTip&#45;&gt;100 -->
<g id="edge7" class="edge"><title>VelTip&#45;&gt;100</title>
<path fill="none" stroke="red" stroke-width="0.688595" d="M76.62,-143.992C76.3144,-137.449 75.8645,-127.82 75.4235,-118.381"/>
<polygon fill="red" stroke="red" stroke-width="0.688595" points="78.9186,-118.193 74.9557,-108.367 71.9263,-118.52 78.9186,-118.193"/>
</g>
<!-- VelTip&#45;&gt;101 -->
<g id="edge8" class="edge"><title>VelTip&#45;&gt;101</title>
<path fill="none" stroke="red" stroke-width="0.687136" d="M84.2191,-143.992C91.5697,-135.711 103.308,-122.487 113.541,-110.96"/>
<polygon fill="red" stroke="red" stroke-width="0.687136" points="116.291,-113.134 120.312,-103.332 111.056,-108.487 116.291,-113.134"/>
</g>
<!-- 0 -->
<g id="node5" class="node"><title>0</title>
<ellipse fill="lightblue" stroke="black" cx="80" cy="-14.8492" rx="14.7" ry="14.7"/>
<text text-anchor="middle" x="80" y="-12.6492" font-family="Times New Roman,serif" font-size="9.00">0</text>
</g>
<!-- 1 -->
<g id="node6" class="node"><title>1</title>
<ellipse fill="lightblue" stroke="black" cx="131" cy="-14.8492" rx="14.7" ry="14.7"/>
<text text-anchor="middle" x="131" y="-12.6492" font-family="Times New Roman,serif" font-size="9.00">1</text>
</g>
<!-- 100&#45;&gt;0 -->
<g id="edge9" class="edge"><title>100&#45;&gt;0</title>
<path fill="none" stroke="red" stroke-width="0.326764" d="M75.7354,-65.6467C76.4266,-57.5765 77.2273,-48.2265 77.947,-39.8226"/>
<polygon fill="red" stroke="red" stroke-width="0.326764" points="81.4348,-40.1134 78.8009,-29.8512 74.4603,-39.516 81.4348,-40.1134"/>
</g>
<!-- 100&#45;&gt;1 -->
<g id="edge10" class="edge"><title>100&#45;&gt;1</title>
<path fill="none" stroke="red" stroke-width="0.173526" d="M86.9342,-70.0134C95.4147,-59.5894 106.548,-45.9051 115.502,-34.8993"/>
<polygon fill="red" stroke="red" stroke-width="0.173526" points="118.248,-37.0695 121.844,-27.1036 112.818,-32.6519 118.248,-37.0695"/>
</g>
<!-- 101&#45;&gt;0 -->
<g id="edge11" class="edge"><title>101&#45;&gt;0</title>
<path fill="none" stroke="red" stroke-width="0.373454" d="M121.476,-69.6619C113.51,-59.3272 103.158,-45.8962 94.7895,-35.0379"/>
<polygon fill="red" stroke="red" stroke-width="0.373454" points="97.4631,-32.7734 88.5863,-26.9896 91.9188,-37.0467 97.4631,-32.7734"/>
</g>
<!-- 101&#45;&gt;1 -->
<g id="edge12" class="edge"><title>101&#45;&gt;1</title>
<path fill="none" stroke="green" stroke-width="0.309653" d="M133.132,-65.6467C132.791,-57.6662 132.395,-48.4341 132.039,-40.1031"/>
<polygon fill="green" stroke="green" stroke-width="0.309653" points="135.524,-39.6922 131.6,-29.8512 128.531,-39.9918 135.524,-39.6922"/>
</g>
</g>
</svg>
