<?xml version="1.0" encoding="UTF-8" standalone="no"?>
<!DOCTYPE svg PUBLIC "-//W3C//DTD SVG 1.1//EN"
 "http://www.w3.org/Graphics/SVG/1.1/DTD/svg11.dtd">
<!-- Generated by graphviz version 2.38.0 (20140413.2041)
 -->
<!-- Title: %3 Pages: 1 -->
<svg width="170pt" height="170pt"
 viewBox="0.00 0.00 170.43 170.12" xmlns="http://www.w3.org/2000/svg" xmlns:xlink="http://www.w3.org/1999/xlink">
<g id="graph0" class="graph" transform="scale(1 1) rotate(0) translate(4 166.125)">
<title>%3</title>
<polygon fill="white" stroke="none" points="-4,4 -4,-166.125 166.426,-166.125 166.426,4 -4,4"/>
<!-- Pos -->
<g id="node1" class="node"><title>Pos</title>
<polygon fill="lightgray" stroke="black" points="72.2132,-162.125 42.2132,-162.125 42.2132,-144.125 72.2132,-144.125 72.2132,-162.125"/>
<text text-anchor="middle" x="57.2132" y="-150.925" font-family="Times New Roman,serif" font-size="9.00">Pos</text>
</g>
<!-- 100 -->
<g id="node4" class="node"><title>100</title>
<ellipse fill="white" stroke="black" cx="21.2132" cy="-86.9117" rx="21.4286" ry="21.4286"/>
<text text-anchor="middle" x="21.2132" y="-84.7117" font-family="Times New Roman,serif" font-size="9.00">100</text>
</g>
<!-- Pos&#45;&gt;100 -->
<g id="edge1" class="edge"><title>Pos&#45;&gt;100</title>
<path fill="none" stroke="red" stroke-width="0.12809" d="M52.6538,-143.992C48.4979,-136.579 42.1211,-125.205 36.1939,-114.633"/>
<polygon fill="red" stroke="red" stroke-width="0.12809" points="39.1113,-112.679 31.168,-105.668 33.0054,-116.102 39.1113,-112.679"/>
</g>
<!-- 101 -->
<g id="node5" class="node"><title>101</title>
<ellipse fill="white" stroke="black" cx="81.2132" cy="-86.9117" rx="21.4286" ry="21.4286"/>
<text text-anchor="middle" x="81.2132" y="-84.7117" font-family="Times New Roman,serif" font-size="9.00">101</text>
</g>
<!-- Pos&#45;&gt;101 -->
<g id="edge2" class="edge"><title>Pos&#45;&gt;101</title>
<path fill="none" stroke="green" stroke-width="0.504434" d="M60.2528,-143.992C62.8719,-136.985 66.814,-126.438 70.5752,-116.374"/>
<polygon fill="green" stroke="green" stroke-width="0.504434" points="73.8543,-117.598 74.0769,-107.005 67.2973,-115.147 73.8543,-117.598"/>
</g>
<!-- 102 -->
<g id="node6" class="node"><title>102</title>
<ellipse fill="white" stroke="black" cx="141.213" cy="-86.9117" rx="21.4286" ry="21.4286"/>
<text text-anchor="middle" x="141.213" y="-84.7117" font-family="Times New Roman,serif" font-size="9.00">102</text>
</g>
<!-- Pos&#45;&gt;102 -->
<g id="edge3" class="edge"><title>Pos&#45;&gt;102</title>
<path fill="none" stroke="red" stroke-width="0.564611" d="M67.8519,-143.992C80.0323,-134.681 100.389,-119.12 116.572,-106.748"/>
<polygon fill="red" stroke="red" stroke-width="0.564611" points="118.77,-109.474 124.589,-100.62 114.519,-103.912 118.77,-109.474"/>
</g>
<!-- Vel -->
<g id="node2" class="node"><title>Vel</title>
<polygon fill="lightgray" stroke="black" points="119.713,-162.125 90.7132,-162.125 90.7132,-144.125 119.713,-144.125 119.713,-162.125"/>
<text text-anchor="middle" x="105.213" y="-150.925" font-family="Times New Roman,serif" font-size="9.00">Vel</text>
</g>
<!-- Vel&#45;&gt;100 -->
<g id="edge4" class="edge"><title>Vel&#45;&gt;100</title>
<path fill="none" stroke="green" stroke-width="3.58218" d="M94.5745,-143.992C82.3941,-134.681 62.0378,-119.12 45.8543,-106.748"/>
<polygon fill="green" stroke="green" stroke-width="3.58218" points="47.9074,-103.912 37.8371,-100.62 43.6561,-109.474 47.9074,-103.912"/>
</g>
<!-- Vel&#45;&gt;101 -->
<g id="edge5" class="edge"><title>Vel&#45;&gt;101</title>
<path fill="none" stroke="green" stroke-width="0.11217" d="M102.174,-143.992C99.5545,-136.985 95.6124,-126.438 91.8512,-116.374"/>
<polygon fill="green" stroke="green" stroke-width="0.11217" points="95.1291,-115.147 88.3495,-107.005 88.5721,-117.598 95.1291,-115.147"/>
</g>
<!-- Vel&#45;&gt;102 -->
<g id="edge6" class="edge"><title>Vel&#45;&gt;102</title>
<path fill="none" stroke="green" stroke-width="0.367185" d="M109.773,-143.992C113.929,-136.579 120.305,-125.205 126.233,-114.633"/>
<polygon fill="green" stroke="green" stroke-width="0.367185" points="129.421,-116.102 131.258,-105.668 123.315,-112.679 129.421,-116.102"/>
</g>
<!-- 0 -->
<g id="node3" class="node"><title>0</title>
<ellipse fill="lightblue" stroke="black" cx="81.2132" cy="-14.8492" rx="14.7" ry="14.7"/>
<text text-anchor="middle" x="81.2132" y="-12.6492" font-family="Times New Roman,serif" font-size="9.00">0</text>
</g>
<!-- 100&#45;&gt;0 -->
<g id="edge7" class="edge"><title>100&#45;&gt;0</title>
<path fill="none" stroke="green" stroke-width="2.09092" d="M34.5291,-70.3626C43.553,-59.8254 55.5297,-45.84 65.0929,-34.6731"/>
<polygon fill="green" stroke="green" stroke-width="2.09092" points="68.0002,-36.6589 71.8464,-26.7869 62.6834,-32.1057 68.0002,-36.6589"/>
</g>
<!-- 101&#45;&gt;0 -->
<g id="edge8" class="edge"><title>101&#45;&gt;0</title>
<path fill="none" stroke="green" stroke-width="0.511376" d="M81.2132,-65.6467C81.2132,-57.6662 81.2132,-48.4341 81.2132,-40.1031"/>
<polygon fill="green" stroke="green" stroke-width="0.511376" points="84.7133,-39.8511 81.2132,-29.8512 77.7133,-39.8512 84.7133,-39.8511"/>
</g>
<!-- 102&#45;&gt;0 -->
<g id="edge9" class="edge"><title>102&#45;&gt;0</title>
<path fill="none" stroke="red" stroke-width="0.428594" d="M127.897,-70.3626C118.873,-59.8254 106.897,-45.84 97.3336,-34.6731"/>
<polygon fill="red" stroke="red" stroke-width="0.428594" points="99.743,-32.1057 90.58,-26.7869 94.4262,-36.6589 99.743,-32.1057"/>
</g>
</g>
</svg>
