<?xml version="1.0" encoding="UTF-8" standalone="no"?>
<!DOCTYPE svg PUBLIC "-//W3C//DTD SVG 1.1//EN"
 "http://www.w3.org/Graphics/SVG/1.1/DTD/svg11.dtd">
<!-- Generated by graphviz version 2.38.0 (20140413.2041)
 -->
<!-- Title: %3 Pages: 1 -->
<svg width="170pt" height="170pt"
 viewBox="0.00 0.00 170.43 170.12" xmlns="http://www.w3.org/2000/svg" xmlns:xlink="http://www.w3.org/1999/xlink">
<g id="graph0" class="graph" transform="scale(1 1) rotate(0) translate(4 166.125)">
<title>%3</title>
<polygon fill="white" stroke="none" points="-4,4 -4,-166.125 166.426,-166.125 166.426,4 -4,4"/>
<!-- &#45;1 -->
<g id="node1" class="node"><title>&#45;1</title>
<polygon fill="lightgray" stroke="black" points="72.2132,-162.125 48.2132,-162.125 48.2132,-144.125 72.2132,-144.125 72.2132,-162.125"/>
<text text-anchor="middle" x="60.2132" y="-150.925" font-family="Times New Roman,serif" font-size="9.00">&#45;1</text>
</g>
<!-- 189 -->
<g id="node6" class="node"><title>189</title>
<ellipse fill="white" stroke="black" cx="21.2132" cy="-86.9117" rx="21.4286" ry="21.4286"/>
<text text-anchor="middle" x="21.2132" y="-84.7117" font-family="Times New Roman,serif" font-size="9.00">189</text>
</g>
<!-- &#45;1&#45;&gt;189 -->
<g id="edge1" class="edge"><title>&#45;1&#45;&gt;189</title>
<path fill="none" stroke="green" stroke-width="0.176982" d="M55.2738,-143.992C50.6941,-136.452 43.6248,-124.812 37.1111,-114.087"/>
<polygon fill="green" stroke="green" stroke-width="0.176982" points="40.0197,-112.134 31.8371,-105.404 34.0368,-115.768 40.0197,-112.134"/>
</g>
<!-- 190 -->
<g id="node7" class="node"><title>190</title>
<ellipse fill="white" stroke="black" cx="81.2132" cy="-86.9117" rx="21.4286" ry="21.4286"/>
<text text-anchor="middle" x="81.2132" y="-84.7117" font-family="Times New Roman,serif" font-size="9.00">190</text>
</g>
<!-- &#45;1&#45;&gt;190 -->
<g id="edge2" class="edge"><title>&#45;1&#45;&gt;190</title>
<path fill="none" stroke="green" stroke-width="0.354294" d="M62.8729,-143.992C65.1244,-137.108 68.4933,-126.806 71.7317,-116.904"/>
<polygon fill="green" stroke="green" stroke-width="0.354294" points="75.0987,-117.868 74.8805,-107.276 68.4454,-115.692 75.0987,-117.868"/>
</g>
<!-- 191 -->
<g id="node8" class="node"><title>191</title>
<ellipse fill="white" stroke="black" cx="141.213" cy="-86.9117" rx="21.4286" ry="21.4286"/>
<text text-anchor="middle" x="141.213" y="-84.7117" font-family="Times New Roman,serif" font-size="9.00">191</text>
</g>
<!-- &#45;1&#45;&gt;191 -->
<g id="edge3" class="edge"><title>&#45;1&#45;&gt;191</title>
<path fill="none" stroke="green" stroke-width="0.141325" d="M70.4719,-143.992C82.0377,-134.823 101.248,-119.594 116.734,-107.318"/>
<polygon fill="green" stroke="green" stroke-width="0.141325" points="119.219,-109.814 124.881,-100.859 114.87,-104.329 119.219,-109.814"/>
</g>
<!-- &#45;2 -->
<g id="node2" class="node"><title>&#45;2</title>
<polygon fill="lightgray" stroke="black" points="114.213,-162.125 90.2132,-162.125 90.2132,-144.125 114.213,-144.125 114.213,-162.125"/>
<text text-anchor="middle" x="102.213" y="-150.925" font-family="Times New Roman,serif" font-size="9.00">&#45;2</text>
</g>
<!-- &#45;2&#45;&gt;189 -->
<g id="edge4" class="edge"><title>&#45;2&#45;&gt;189</title>
<path fill="none" stroke="red" stroke-width="0.770941" d="M91.9545,-143.992C80.3887,-134.823 61.1782,-119.594 45.6929,-107.318"/>
<polygon fill="red" stroke="red" stroke-width="0.770941" points="47.556,-104.329 37.5454,-100.859 43.2074,-109.814 47.556,-104.329"/>
</g>
<!-- &#45;2&#45;&gt;190 -->
<g id="edge5" class="edge"><title>&#45;2&#45;&gt;190</title>
<path fill="none" stroke="red" stroke-width="0.143088" d="M99.5535,-143.992C97.302,-137.108 93.9331,-126.806 90.6947,-116.904"/>
<polygon fill="red" stroke="red" stroke-width="0.143088" points="93.981,-115.692 87.5459,-107.276 87.3277,-117.868 93.981,-115.692"/>
</g>
<!-- &#45;2&#45;&gt;191 -->
<g id="edge6" class="edge"><title>&#45;2&#45;&gt;191</title>
<path fill="none" stroke="green" stroke-width="0.14527" d="M107.153,-143.992C111.732,-136.452 118.802,-124.812 125.315,-114.087"/>
<polygon fill="green" stroke="green" stroke-width="0.14527" points="128.39,-115.768 130.589,-105.404 122.407,-112.134 128.39,-115.768"/>
</g>
<!-- 0 -->
<g id="node3" class="node"><title>0</title>
<ellipse fill="lightblue" stroke="black" cx="33.2132" cy="-14.8492" rx="14.7" ry="14.7"/>
<text text-anchor="middle" x="33.2132" y="-12.6492" font-family="Times New Roman,serif" font-size="9.00">0</text>
</g>
<!-- 1 -->
<g id="node4" class="node"><title>1</title>
<ellipse fill="lightblue" stroke="black" cx="81.2132" cy="-14.8492" rx="14.7" ry="14.7"/>
<text text-anchor="middle" x="81.2132" y="-12.6492" font-family="Times New Roman,serif" font-size="9.00">1</text>
</g>
<!-- 2 -->
<g id="node5" class="node"><title>2</title>
<ellipse fill="lightblue" stroke="black" cx="129.213" cy="-14.8492" rx="14.7" ry="14.7"/>
<text text-anchor="middle" x="129.213" y="-12.6492" font-family="Times New Roman,serif" font-size="9.00">2</text>
</g>
<!-- 189&#45;&gt;0 -->
<g id="edge7" class="edge"><title>189&#45;&gt;0</title>
<path fill="none" stroke="green" stroke-width="0.599813" d="M24.6841,-65.6467C26.0663,-57.5765 27.6678,-48.2265 29.1071,-39.8226"/>
<polygon fill="green" stroke="green" stroke-width="0.599813" points="32.5765,-40.2985 30.815,-29.8512 25.677,-39.1167 32.5765,-40.2985"/>
</g>
<!-- 189&#45;&gt;1 -->
<g id="edge8" class="edge"><title>189&#45;&gt;1</title>
<path fill="none" stroke="green" stroke-width="0.242207" d="M34.5291,-70.3626C43.553,-59.8254 55.5297,-45.84 65.0929,-34.6731"/>
<polygon fill="green" stroke="green" stroke-width="0.242207" points="68.0002,-36.6589 71.8464,-26.7869 62.6834,-32.1057 68.0002,-36.6589"/>
</g>
<!-- 189&#45;&gt;2 -->
<g id="edge9" class="edge"><title>189&#45;&gt;2</title>
<path fill="none" stroke="red" stroke-width="0.347722" d="M38.2992,-74.2955C42.508,-71.4629 47.0128,-68.4552 51.2132,-65.6985 70.5314,-53.0201 92.7544,-38.8585 108.525,-28.8791"/>
<polygon fill="red" stroke="red" stroke-width="0.347722" points="110.409,-31.829 116.995,-23.5295 106.671,-25.9107 110.409,-31.829"/>
</g>
<!-- 190&#45;&gt;0 -->
<g id="edge10" class="edge"><title>190&#45;&gt;0</title>
<path fill="none" stroke="red" stroke-width="0.194514" d="M69.5937,-68.9515C62.8126,-59.0535 54.2155,-46.5049 47.0813,-36.0917"/>
<polygon fill="red" stroke="red" stroke-width="0.194514" points="49.8103,-33.8822 41.271,-27.6107 44.0355,-37.8385 49.8103,-33.8822"/>
</g>
<!-- 190&#45;&gt;1 -->
<g id="edge11" class="edge"><title>190&#45;&gt;1</title>
<path fill="none" stroke="green" stroke-width="0.330168" d="M81.2132,-65.6467C81.2132,-57.6662 81.2132,-48.4341 81.2132,-40.1031"/>
<polygon fill="green" stroke="green" stroke-width="0.330168" points="84.7133,-39.8511 81.2132,-29.8512 77.7133,-39.8512 84.7133,-39.8511"/>
</g>
<!-- 190&#45;&gt;2 -->
<g id="edge12" class="edge"><title>190&#45;&gt;2</title>
<path fill="none" stroke="red" stroke-width="0.134586" d="M92.8327,-68.9515C99.6139,-59.0535 108.211,-46.5049 115.345,-36.0917"/>
<polygon fill="red" stroke="red" stroke-width="0.134586" points="118.391,-37.8385 121.155,-27.6107 112.616,-33.8822 118.391,-37.8385"/>
</g>
<!-- 191&#45;&gt;0 -->
<g id="edge13" class="edge"><title>191&#45;&gt;0</title>
<path fill="none" stroke="red" stroke-width="0.175957" d="M124.127,-74.2955C119.918,-71.4629 115.414,-68.4552 111.213,-65.6985 91.895,-53.0201 69.672,-38.8585 53.901,-28.8791"/>
<polygon fill="red" stroke="red" stroke-width="0.175957" points="55.7554,-25.9107 45.4316,-23.5295 52.0171,-31.829 55.7554,-25.9107"/>
</g>
<!-- 191&#45;&gt;1 -->
<g id="edge14" class="edge"><title>191&#45;&gt;1</title>
<path fill="none" stroke="red" stroke-width="0.101675" d="M127.897,-70.3626C118.873,-59.8254 106.897,-45.84 97.3336,-34.6731"/>
<polygon fill="red" stroke="red" stroke-width="0.101675" points="99.743,-32.1057 90.58,-26.7869 94.4262,-36.6589 99.743,-32.1057"/>
</g>
<!-- 191&#45;&gt;2 -->
<g id="edge15" class="edge"><title>191&#45;&gt;2</title>
<path fill="none" stroke="green" stroke-width="0.33502" d="M137.742,-65.6467C136.36,-57.5765 134.759,-48.2265 133.319,-39.8226"/>
<polygon fill="green" stroke="green" stroke-width="0.33502" points="136.749,-39.1167 131.611,-29.8512 129.85,-40.2985 136.749,-39.1167"/>
</g>
</g>
</svg>
