<?xml version="1.0" encoding="UTF-8" standalone="no"?>
<!DOCTYPE svg PUBLIC "-//W3C//DTD SVG 1.1//EN"
 "http://www.w3.org/Graphics/SVG/1.1/DTD/svg11.dtd">
<!-- Generated by graphviz version 2.38.0 (20140413.2041)
 -->
<!-- Title: %3 Pages: 1 -->
<svg width="158pt" height="92pt"
 viewBox="0.00 0.00 158.00 91.70" xmlns="http://www.w3.org/2000/svg" xmlns:xlink="http://www.w3.org/1999/xlink">
<g id="graph0" class="graph" transform="scale(1 1) rotate(0) translate(4 87.6985)">
<title>%3</title>
<polygon fill="white" stroke="none" points="-4,4 -4,-87.6985 154,-87.6985 154,4 -4,4"/>
<!-- &#45;1 -->
<g id="node1" class="node"><title>&#45;1</title>
<polygon fill="lightgray" stroke="black" points="24,-83.6985 0,-83.6985 0,-65.6985 24,-65.6985 24,-83.6985"/>
<text text-anchor="middle" x="12" y="-72.4985" font-family="Times New Roman,serif" font-size="9.00">&#45;1</text>
</g>
<!-- &#45;2 -->
<g id="node2" class="node"><title>&#45;2</title>
<polygon fill="lightgray" stroke="black" points="108,-83.6985 84,-83.6985 84,-65.6985 108,-65.6985 108,-83.6985"/>
<text text-anchor="middle" x="96" y="-72.4985" font-family="Times New Roman,serif" font-size="9.00">&#45;2</text>
</g>
<!-- 0 -->
<g id="node5" class="node"><title>0</title>
<ellipse fill="lightblue" stroke="black" cx="54" cy="-14.8492" rx="14.7" ry="14.7"/>
<text text-anchor="middle" x="54" y="-12.6492" font-family="Times New Roman,serif" font-size="9.00">0</text>
</g>
<!-- &#45;2&#45;&gt;0 -->
<g id="edge1" class="edge"><title>&#45;2&#45;&gt;0</title>
<path fill="none" stroke="green" stroke-width="0.365346" d="M90.1601,-65.6548C84.5251,-57.8934 75.7718,-45.8369 68.2889,-35.5302"/>
<polygon fill="green" stroke="green" stroke-width="0.365346" points="71.1058,-33.4527 62.3984,-27.4169 65.4413,-37.5653 71.1058,-33.4527"/>
</g>
<!-- 1 -->
<g id="node6" class="node"><title>1</title>
<ellipse fill="lightblue" stroke="black" cx="102" cy="-14.8492" rx="14.7" ry="14.7"/>
<text text-anchor="middle" x="102" y="-12.6492" font-family="Times New Roman,serif" font-size="9.00">1</text>
</g>
<!-- &#45;2&#45;&gt;1 -->
<g id="edge2" class="edge"><title>&#45;2&#45;&gt;1</title>
<path fill="none" stroke="green" stroke-width="0.355307" d="M96.8343,-65.6548C97.5193,-59.0498 98.527,-49.3344 99.4709,-40.2339"/>
<polygon fill="green" stroke="green" stroke-width="0.355307" points="102.976,-40.3641 100.526,-30.0563 96.0134,-39.6419 102.976,-40.3641"/>
</g>
<!-- &#45;3 -->
<g id="node3" class="node"><title>&#45;3</title>
<polygon fill="lightgray" stroke="black" points="66,-83.6985 42,-83.6985 42,-65.6985 66,-65.6985 66,-83.6985"/>
<text text-anchor="middle" x="54" y="-72.4985" font-family="Times New Roman,serif" font-size="9.00">&#45;3</text>
</g>
<!-- &#45;3&#45;&gt;0 -->
<g id="edge3" class="edge"><title>&#45;3&#45;&gt;0</title>
<path fill="none" stroke="green" stroke-width="0.329882" d="M54,-65.6548C54,-59.0498 54,-49.3344 54,-40.2339"/>
<polygon fill="green" stroke="green" stroke-width="0.329882" points="57.5001,-40.0563 54,-30.0563 50.5001,-40.0564 57.5001,-40.0563"/>
</g>
<!-- &#45;3&#45;&gt;1 -->
<g id="edge4" class="edge"><title>&#45;3&#45;&gt;1</title>
<path fill="none" stroke="red" stroke-width="0.380572" d="M60.6742,-65.6548C67.2599,-57.7178 77.5725,-45.2891 86.248,-34.8334"/>
<polygon fill="red" stroke="red" stroke-width="0.380572" points="89.0602,-36.9253 92.7522,-26.9946 83.6731,-32.4555 89.0602,-36.9253"/>
</g>
<!-- &#45;4 -->
<g id="node4" class="node"><title>&#45;4</title>
<polygon fill="lightgray" stroke="black" points="150,-83.6985 126,-83.6985 126,-65.6985 150,-65.6985 150,-83.6985"/>
<text text-anchor="middle" x="138" y="-72.4985" font-family="Times New Roman,serif" font-size="9.00">&#45;4</text>
</g>
<!-- &#45;4&#45;&gt;1 -->
<g id="edge5" class="edge"><title>&#45;4&#45;&gt;1</title>
<path fill="none" stroke="red" stroke-width="0.394505" d="M132.994,-65.6548C128.32,-58.1437 121.143,-46.6101 114.871,-36.5326"/>
<polygon fill="red" stroke="red" stroke-width="0.394505" points="117.72,-34.4854 109.465,-27.8444 111.777,-38.1839 117.72,-34.4854"/>
</g>
</g>
</svg>
