<?xml version="1.0" encoding="UTF-8" standalone="no"?>
<!DOCTYPE svg PUBLIC "-//W3C//DTD SVG 1.1//EN"
 "http://www.w3.org/Graphics/SVG/1.1/DTD/svg11.dtd">
<!-- Generated by graphviz version 2.38.0 (20140413.2041)
 -->
<!-- Title: %3 Pages: 1 -->
<svg width="155pt" height="164pt"
 viewBox="0.00 0.00 154.77 164.47" xmlns="http://www.w3.org/2000/svg" xmlns:xlink="http://www.w3.org/1999/xlink">
<g id="graph0" class="graph" transform="scale(1 1) rotate(0) translate(4 160.468)">
<title>%3</title>
<polygon fill="white" stroke="none" points="-4,4 -4,-160.468 150.77,-160.468 150.77,4 -4,4"/>
<!-- Pos -->
<g id="node1" class="node"><title>Pos</title>
<polygon fill="lightgray" stroke="black" points="64.3848,-156.468 34.3848,-156.468 34.3848,-138.468 64.3848,-138.468 64.3848,-156.468"/>
<text text-anchor="middle" x="49.3848" y="-145.268" font-family="Times New Roman,serif" font-size="9.00">Pos</text>
</g>
<!-- 69 -->
<g id="node6" class="node"><title>69</title>
<ellipse fill="white" stroke="black" cx="18.3848" cy="-84.0833" rx="18.2703" ry="18.2703"/>
<text text-anchor="middle" x="18.3848" y="-81.8833" font-family="Times New Roman,serif" font-size="9.00">69</text>
</g>
<!-- Pos&#45;&gt;69 -->
<g id="edge1" class="edge"><title>Pos&#45;&gt;69</title>
<path fill="none" stroke="red" stroke-width="0.341829" d="M45.3321,-138.443C41.663,-131.178 36.0603,-120.084 30.9122,-109.889"/>
<polygon fill="red" stroke="red" stroke-width="0.341829" points="34.0128,-108.265 26.3806,-100.916 27.7644,-111.42 34.0128,-108.265"/>
</g>
<!-- 70 -->
<g id="node7" class="node"><title>70</title>
<ellipse fill="white" stroke="black" cx="73.3848" cy="-84.0833" rx="18.2703" ry="18.2703"/>
<text text-anchor="middle" x="73.3848" y="-81.8833" font-family="Times New Roman,serif" font-size="9.00">70</text>
</g>
<!-- Pos&#45;&gt;70 -->
<g id="edge2" class="edge"><title>Pos&#45;&gt;70</title>
<path fill="none" stroke="green" stroke-width="0.104271" d="M52.5224,-138.443C55.2669,-131.423 59.4087,-120.83 63.2805,-110.927"/>
<polygon fill="green" stroke="green" stroke-width="0.104271" points="66.6188,-112 67.0005,-101.412 60.0994,-109.451 66.6188,-112"/>
</g>
<!-- 71 -->
<g id="node8" class="node"><title>71</title>
<ellipse fill="white" stroke="black" cx="128.385" cy="-84.0833" rx="18.2703" ry="18.2703"/>
<text text-anchor="middle" x="128.385" y="-81.8833" font-family="Times New Roman,serif" font-size="9.00">71</text>
</g>
<!-- Pos&#45;&gt;71 -->
<g id="edge3" class="edge"><title>Pos&#45;&gt;71</title>
<path fill="none" stroke="green" stroke-width="0.118044" d="M59.7126,-138.443C71.4992,-129.285 91.1154,-114.042 106.371,-102.188"/>
<polygon fill="green" stroke="green" stroke-width="0.118044" points="108.572,-104.911 114.321,-96.0112 104.277,-99.3832 108.572,-104.911"/>
</g>
<!-- Vel -->
<g id="node2" class="node"><title>Vel</title>
<polygon fill="lightgray" stroke="black" points="111.885,-156.468 82.8848,-156.468 82.8848,-138.468 111.885,-138.468 111.885,-156.468"/>
<text text-anchor="middle" x="97.3848" y="-145.268" font-family="Times New Roman,serif" font-size="9.00">Vel</text>
</g>
<!-- Vel&#45;&gt;69 -->
<g id="edge4" class="edge"><title>Vel&#45;&gt;69</title>
<path fill="none" stroke="green" stroke-width="0.134423" d="M87.0569,-138.443C75.2704,-129.285 55.6541,-114.042 40.3982,-102.188"/>
<polygon fill="green" stroke="green" stroke-width="0.134423" points="42.4926,-99.3832 32.4486,-96.0112 38.1976,-104.911 42.4926,-99.3832"/>
</g>
<!-- Vel&#45;&gt;70 -->
<g id="edge5" class="edge"><title>Vel&#45;&gt;70</title>
<path fill="none" stroke="red" stroke-width="0.439024" d="M94.2472,-138.443C91.5027,-131.423 87.3608,-120.83 83.489,-110.927"/>
<polygon fill="red" stroke="red" stroke-width="0.439024" points="86.6702,-109.451 79.7691,-101.412 80.1508,-112 86.6702,-109.451"/>
</g>
<!-- Vel&#45;&gt;71 -->
<g id="edge6" class="edge"><title>Vel&#45;&gt;71</title>
<path fill="none" stroke="red" stroke-width="0.33" d="M101.437,-138.443C105.107,-131.178 110.709,-120.084 115.857,-109.889"/>
<polygon fill="red" stroke="red" stroke-width="0.33" points="119.005,-111.42 120.389,-100.916 112.757,-108.265 119.005,-111.42"/>
</g>
<!-- 0 -->
<g id="node3" class="node"><title>0</title>
<ellipse fill="lightblue" stroke="black" cx="25.3848" cy="-14.8492" rx="14.7" ry="14.7"/>
<text text-anchor="middle" x="25.3848" y="-12.6492" font-family="Times New Roman,serif" font-size="9.00">0</text>
</g>
<!-- 1 -->
<g id="node4" class="node"><title>1</title>
<ellipse fill="lightblue" stroke="black" cx="73.3848" cy="-14.8492" rx="14.7" ry="14.7"/>
<text text-anchor="middle" x="73.3848" y="-12.6492" font-family="Times New Roman,serif" font-size="9.00">1</text>
</g>
<!-- 2 -->
<g id="node5" class="node"><title>2</title>
<ellipse fill="lightblue" stroke="black" cx="121.385" cy="-14.8492" rx="14.7" ry="14.7"/>
<text text-anchor="middle" x="121.385" y="-12.6492" font-family="Times New Roman,serif" font-size="9.00">2</text>
</g>
<!-- 69&#45;&gt;0 -->
<g id="edge7" class="edge"><title>69&#45;&gt;0</title>
<path fill="none" stroke="green" stroke-width="0.586008" d="M20.1875,-65.7688C21.0078,-57.8899 21.9922,-48.4346 22.8826,-39.8823"/>
<polygon fill="green" stroke="green" stroke-width="0.586008" points="26.3863,-40.0277 23.9407,-29.719 19.4239,-39.3028 26.3863,-40.0277"/>
</g>
<!-- 69&#45;&gt;1 -->
<g id="edge8" class="edge"><title>69&#45;&gt;1</title>
<path fill="none" stroke="red" stroke-width="0.509664" d="M29.7808,-69.1523C37.9046,-59.2216 48.9232,-45.7519 57.8514,-34.8379"/>
<polygon fill="red" stroke="red" stroke-width="0.509664" points="60.566,-37.0471 64.1887,-27.0909 55.1479,-32.6149 60.566,-37.0471"/>
</g>
<!-- 69&#45;&gt;2 -->
<g id="edge9" class="edge"><title>69&#45;&gt;2</title>
<path fill="none" stroke="green" stroke-width="0.525967" d="M33.5828,-73.1627C51.3604,-61.5582 80.8803,-42.2888 100.726,-29.3342"/>
<polygon fill="green" stroke="green" stroke-width="0.525967" points="102.882,-32.1069 109.342,-23.7099 99.0555,-26.2452 102.882,-32.1069"/>
</g>
<!-- 70&#45;&gt;0 -->
<g id="edge10" class="edge"><title>70&#45;&gt;0</title>
<path fill="none" stroke="green" stroke-width="0.889684" d="M62.9695,-68.4945C56.0763,-58.8392 46.9539,-46.0613 39.4226,-35.5122"/>
<polygon fill="green" stroke="green" stroke-width="0.889684" points="42.2135,-33.3977 33.5545,-27.2927 36.5164,-37.4651 42.2135,-33.3977"/>
</g>
<!-- 70&#45;&gt;1 -->
<g id="edge11" class="edge"><title>70&#45;&gt;1</title>
<path fill="none" stroke="red" stroke-width="0.233516" d="M73.3848,-65.4183C73.3848,-57.7354 73.3848,-48.6054 73.3848,-40.2874"/>
<polygon fill="red" stroke="red" stroke-width="0.233516" points="76.8849,-40.0103 73.3848,-30.0103 69.8849,-40.0103 76.8849,-40.0103"/>
</g>
<!-- 70&#45;&gt;2 -->
<g id="edge12" class="edge"><title>70&#45;&gt;2</title>
<path fill="none" stroke="red" stroke-width="0.556314" d="M83.8001,-68.4945C90.6932,-58.8392 99.8157,-46.0613 107.347,-35.5122"/>
<polygon fill="red" stroke="red" stroke-width="0.556314" points="110.253,-37.4651 113.215,-27.2927 104.556,-33.3977 110.253,-37.4651"/>
</g>
<!-- 71&#45;&gt;0 -->
<g id="edge13" class="edge"><title>71&#45;&gt;0</title>
<path fill="none" stroke="red" stroke-width="0.563399" d="M113.187,-73.1627C95.4092,-61.5582 65.8893,-42.2888 46.0432,-29.3342"/>
<polygon fill="red" stroke="red" stroke-width="0.563399" points="47.7141,-26.2452 37.4271,-23.7099 43.8878,-32.1069 47.7141,-26.2452"/>
</g>
<!-- 71&#45;&gt;1 -->
<g id="edge14" class="edge"><title>71&#45;&gt;1</title>
<path fill="none" stroke="red" stroke-width="0.150876" d="M116.989,-69.1523C108.865,-59.2216 97.8463,-45.7519 88.9182,-34.8379"/>
<polygon fill="red" stroke="red" stroke-width="0.150876" points="91.6217,-32.6149 82.5809,-27.0909 86.2036,-37.0471 91.6217,-32.6149"/>
</g>
<!-- 71&#45;&gt;2 -->
<g id="edge15" class="edge"><title>71&#45;&gt;2</title>
<path fill="none" stroke="green" stroke-width="0.164313" d="M126.582,-65.7688C125.762,-57.8899 124.777,-48.4346 123.887,-39.8823"/>
<polygon fill="green" stroke="green" stroke-width="0.164313" points="127.346,-39.3028 122.829,-29.719 120.383,-40.0277 127.346,-39.3028"/>
</g>
</g>
</svg>
