<?xml version="1.0" encoding="UTF-8" standalone="no"?>
<!DOCTYPE svg PUBLIC "-//W3C//DTD SVG 1.1//EN"
 "http://www.w3.org/Graphics/SVG/1.1/DTD/svg11.dtd">
<!-- Generated by graphviz version 2.38.0 (20140413.2041)
 -->
<!-- Title: %3 Pages: 1 -->
<svg width="117pt" height="243pt"
 viewBox="0.00 0.00 117.21 242.89" xmlns="http://www.w3.org/2000/svg" xmlns:xlink="http://www.w3.org/1999/xlink">
<g id="graph0" class="graph" transform="scale(1 1) rotate(0) translate(4 238.894)">
<title>%3</title>
<polygon fill="white" stroke="none" points="-4,4 -4,-238.894 113.213,-238.894 113.213,4 -4,4"/>
<!-- Pos -->
<g id="node1" class="node"><title>Pos</title>
<polygon fill="lightgray" stroke="black" points="30,-234.894 0,-234.894 0,-216.894 30,-216.894 30,-234.894"/>
<text text-anchor="middle" x="15" y="-223.694" font-family="Times New Roman,serif" font-size="9.00">Pos</text>
</g>
<!-- Vel -->
<g id="node2" class="node"><title>Vel</title>
<polygon fill="lightgray" stroke="black" points="77.5,-234.894 48.5,-234.894 48.5,-216.894 77.5,-216.894 77.5,-234.894"/>
<text text-anchor="middle" x="63" y="-223.694" font-family="Times New Roman,serif" font-size="9.00">Vel</text>
</g>
<!-- 19 -->
<g id="node4" class="node"><title>19</title>
<ellipse fill="white" stroke="black" cx="63" cy="-162.51" rx="18.2703" ry="18.2703"/>
<text text-anchor="middle" x="63" y="-160.31" font-family="Times New Roman,serif" font-size="9.00">19</text>
</g>
<!-- Vel&#45;&gt;19 -->
<g id="edge1" class="edge"><title>Vel&#45;&gt;19</title>
<path fill="none" stroke="red" stroke-width="1.01816" d="M63,-216.869C63,-210.305 63,-200.616 63,-191.289"/>
<polygon fill="red" stroke="red" stroke-width="1.01816" points="66.5001,-191.097 63,-181.098 59.5001,-191.098 66.5001,-191.097"/>
</g>
<!-- 0 -->
<g id="node3" class="node"><title>0</title>
<ellipse fill="lightblue" stroke="black" cx="63" cy="-14.8492" rx="14.7" ry="14.7"/>
<text text-anchor="middle" x="63" y="-12.6492" font-family="Times New Roman,serif" font-size="9.00">0</text>
</g>
<!-- 19&#45;&gt;0 -->
<g id="edge2" class="edge"><title>19&#45;&gt;0</title>
<path fill="none" stroke="green" stroke-width="0.233882" stroke-dasharray="1,5" d="M60.9691,-144.228C59.8454,-133.791 58.5649,-120.213 58,-108.125 57.1199,-89.2893 57.0579,-84.5311 58,-65.6985 58.423,-57.2423 59.2473,-48.0093 60.1065,-39.813"/>
<polygon fill="green" stroke="green" stroke-width="0.233882" points="63.5945,-40.1144 61.2253,-29.7879 56.6377,-39.338 63.5945,-40.1144"/>
</g>
<!-- 244 -->
<g id="node5" class="node"><title>244</title>
<ellipse fill="white" stroke="black" cx="88" cy="-86.9117" rx="21.4286" ry="21.4286"/>
<text text-anchor="middle" x="88" y="-84.7117" font-family="Times New Roman,serif" font-size="9.00">244</text>
</g>
<!-- 19&#45;&gt;244 -->
<g id="edge3" class="edge"><title>19&#45;&gt;244</title>
<path fill="none" stroke="green" stroke-width="0.541866" d="M68.6729,-144.809C71.4956,-136.499 74.9884,-126.217 78.225,-116.689"/>
<polygon fill="green" stroke="green" stroke-width="0.541866" points="81.5639,-117.741 81.4662,-107.147 74.9358,-115.489 81.5639,-117.741"/>
</g>
<!-- 244&#45;&gt;0 -->
<g id="edge4" class="edge"><title>244&#45;&gt;0</title>
<path fill="none" stroke="red" stroke-width="1.86481" d="M81.1686,-66.7668C78.0595,-58.0533 74.3566,-47.6762 71.1075,-38.5704"/>
<polygon fill="red" stroke="red" stroke-width="1.86481" points="74.3448,-37.2284 67.6876,-28.9863 67.752,-39.581 74.3448,-37.2284"/>
</g>
</g>
</svg>
