<?xml version="1.0" encoding="UTF-8" standalone="no"?>
<!DOCTYPE svg PUBLIC "-//W3C//DTD SVG 1.1//EN"
 "http://www.w3.org/Graphics/SVG/1.1/DTD/svg11.dtd">
<!-- Generated by graphviz version 2.38.0 (20140413.2041)
 -->
<!-- Title: %3 Pages: 1 -->
<svg width="133pt" height="103pt"
 viewBox="0.00 0.00 132.85 103.40" xmlns="http://www.w3.org/2000/svg" xmlns:xlink="http://www.w3.org/1999/xlink">
<g id="graph0" class="graph" transform="scale(1 1) rotate(0) translate(4 99.397)">
<title>%3</title>
<polygon fill="white" stroke="none" points="-4,4 -4,-99.397 128.849,-99.397 128.849,4 -4,4"/>
<!-- Pos -->
<g id="node1" class="node"><title>Pos</title>
<polygon fill="lightgray" stroke="black" points="30,-89.5477 0,-89.5477 0,-71.5477 30,-71.5477 30,-89.5477"/>
<text text-anchor="middle" x="15" y="-78.3477" font-family="Times New Roman,serif" font-size="9.00">Pos</text>
</g>
<!-- 2 -->
<g id="node5" class="node"><title>2</title>
<ellipse fill="lightblue" stroke="black" cx="15" cy="-14.8492" rx="14.7" ry="14.7"/>
<text text-anchor="middle" x="15" y="-12.6492" font-family="Times New Roman,serif" font-size="9.00">2</text>
</g>
<!-- Pos&#45;&gt;2 -->
<g id="edge1" class="edge"><title>Pos&#45;&gt;2</title>
<path fill="none" stroke="red" stroke-width="0.102848" d="M15,-71.4803C15,-63.565 15,-51.0967 15,-39.9685"/>
<polygon fill="red" stroke="red" stroke-width="0.102848" points="18.5001,-39.902 15,-29.9021 11.5001,-39.9021 18.5001,-39.902"/>
</g>
<!-- Vel -->
<g id="node2" class="node"><title>Vel</title>
<polygon fill="lightgray" stroke="black" points="77.5,-89.5477 48.5,-89.5477 48.5,-71.5477 77.5,-71.5477 77.5,-89.5477"/>
<text text-anchor="middle" x="63" y="-78.3477" font-family="Times New Roman,serif" font-size="9.00">Vel</text>
</g>
<!-- 0 -->
<g id="node3" class="node"><title>0</title>
<ellipse fill="lightblue" stroke="black" cx="63" cy="-14.8492" rx="14.7" ry="14.7"/>
<text text-anchor="middle" x="63" y="-12.6492" font-family="Times New Roman,serif" font-size="9.00">0</text>
</g>
<!-- Vel&#45;&gt;0 -->
<g id="edge2" class="edge"><title>Vel&#45;&gt;0</title>
<path fill="none" stroke="red" stroke-width="0.421033" d="M63,-71.4803C63,-63.565 63,-51.0967 63,-39.9685"/>
<polygon fill="red" stroke="red" stroke-width="0.421033" points="66.5001,-39.902 63,-29.9021 59.5001,-39.9021 66.5001,-39.902"/>
</g>
<!-- 1 -->
<g id="node4" class="node"><title>1</title>
<ellipse fill="lightblue" stroke="black" cx="110" cy="-80.5477" rx="14.7" ry="14.7"/>
<text text-anchor="middle" x="110" y="-78.3477" font-family="Times New Roman,serif" font-size="9.00">1</text>
</g>
</g>
</svg>
