<?xml version="1.0" encoding="UTF-8" standalone="no"?>
<!DOCTYPE svg PUBLIC "-//W3C//DTD SVG 1.1//EN"
 "http://www.w3.org/Graphics/SVG/1.1/DTD/svg11.dtd">
<!-- Generated by graphviz version 2.38.0 (20140413.2041)
 -->
<!-- Title: %3 Pages: 1 -->
<svg width="258pt" height="195pt"
 viewBox="0.00 0.00 258.41 194.55" xmlns="http://www.w3.org/2000/svg" xmlns:xlink="http://www.w3.org/1999/xlink">
<g id="graph0" class="graph" transform="scale(1 1) rotate(0) translate(4 190.551)">
<title>%3</title>
<polygon fill="white" stroke="none" points="-4,4 -4,-190.551 254.41,-190.551 254.41,4 -4,4"/>
<!-- Pos -->
<g id="node1" class="node"><title>Pos</title>
<polygon fill="lightgray" stroke="black" points="50.5607,-174.338 20.5607,-174.338 20.5607,-156.338 50.5607,-156.338 50.5607,-174.338"/>
<text text-anchor="middle" x="35.5607" y="-163.138" font-family="Times New Roman,serif" font-size="9.00">Pos</text>
</g>
<!-- 0 -->
<g id="node3" class="node"><title>0</title>
<ellipse fill="lightblue" stroke="black" cx="83.5607" cy="-14.8492" rx="14.7" ry="14.7"/>
<text text-anchor="middle" x="83.5607" y="-12.6492" font-family="Times New Roman,serif" font-size="9.00">0</text>
</g>
<!-- Pos&#45;&gt;0 -->
<g id="edge1" class="edge"><title>Pos&#45;&gt;0</title>
<path fill="none" stroke="red" stroke-width="0.167868" d="M29.0171,-156.229C15.7927,-138.79 -11.4636,-96.7827 5.56069,-65.6985 17.0246,-44.7669 41.4349,-31.3454 59.9142,-23.7644"/>
<polygon fill="red" stroke="red" stroke-width="0.167868" points="61.3444,-26.9652 69.4504,-20.143 58.8592,-20.4212 61.3444,-26.9652"/>
</g>
<!-- 1 -->
<g id="node4" class="node"><title>1</title>
<ellipse fill="lightblue" stroke="black" cx="89.5607" cy="-86.9117" rx="14.7" ry="14.7"/>
<text text-anchor="middle" x="89.5607" y="-84.7117" font-family="Times New Roman,serif" font-size="9.00">1</text>
</g>
<!-- Pos&#45;&gt;1 -->
<g id="edge2" class="edge"><title>Pos&#45;&gt;1</title>
<path fill="none" stroke="green" stroke-width="0.374134" d="M41.3396,-156.159C49.3911,-144.764 64.2439,-123.743 75.3464,-108.029"/>
<polygon fill="green" stroke="green" stroke-width="0.374134" points="78.4582,-109.69 81.3703,-99.5036 72.7412,-105.651 78.4582,-109.69"/>
</g>
<!-- 529 -->
<g id="node8" class="node"><title>529</title>
<ellipse fill="white" stroke="black" cx="35.5607" cy="-86.9117" rx="21.4286" ry="21.4286"/>
<text text-anchor="middle" x="35.5607" y="-84.7117" font-family="Times New Roman,serif" font-size="9.00">529</text>
</g>
<!-- Pos&#45;&gt;529 -->
<g id="edge6" class="edge"><title>Pos&#45;&gt;529</title>
<path fill="none" stroke="green" stroke-width="0.183263" d="M35.5607,-156.159C35.5607,-147.138 35.5607,-132.082 35.5607,-118.405"/>
<polygon fill="green" stroke="green" stroke-width="0.183263" points="39.0608,-118.336 35.5607,-108.336 32.0608,-118.336 39.0608,-118.336"/>
</g>
<!-- Vel -->
<g id="node2" class="node"><title>Vel</title>
<polygon fill="lightgray" stroke="black" points="250.061,-174.338 221.061,-174.338 221.061,-156.338 250.061,-156.338 250.061,-174.338"/>
<text text-anchor="middle" x="235.561" y="-163.138" font-family="Times New Roman,serif" font-size="9.00">Vel</text>
</g>
<!-- 2 -->
<g id="node5" class="node"><title>2</title>
<ellipse fill="lightblue" stroke="black" cx="235.561" cy="-86.9117" rx="14.7" ry="14.7"/>
<text text-anchor="middle" x="235.561" y="-84.7117" font-family="Times New Roman,serif" font-size="9.00">2</text>
</g>
<!-- Vel&#45;&gt;2 -->
<g id="edge3" class="edge"><title>Vel&#45;&gt;2</title>
<path fill="none" stroke="green" stroke-width="1.39053" d="M235.561,-156.159C235.561,-145.748 235.561,-127.3 235.561,-112.208"/>
<polygon fill="green" stroke="green" stroke-width="1.39053" points="239.061,-111.974 235.561,-101.974 232.061,-111.974 239.061,-111.974"/>
</g>
<!-- 5 -->
<g id="node6" class="node"><title>5</title>
<ellipse fill="white" stroke="black" cx="162.561" cy="-165.338" rx="14.7" ry="14.7"/>
<text text-anchor="middle" x="162.561" y="-163.138" font-family="Times New Roman,serif" font-size="9.00">5</text>
</g>
<!-- 5&#45;&gt;0 -->
<g id="edge4" class="edge"><title>5&#45;&gt;0</title>
<path fill="none" stroke="green" stroke-width="0.172472" stroke-dasharray="1,5" d="M156.543,-151.399C147.608,-132.385 130.104,-95.8806 113.561,-65.6985 108.228,-55.9691 101.948,-45.4115 96.516,-36.5275"/>
<polygon fill="green" stroke="green" stroke-width="0.172472" points="99.4698,-34.6493 91.2372,-27.9803 93.5141,-38.3276 99.4698,-34.6493"/>
</g>
<!-- 593 -->
<g id="node9" class="node"><title>593</title>
<ellipse fill="white" stroke="black" cx="181.561" cy="-86.9117" rx="21.4286" ry="21.4286"/>
<text text-anchor="middle" x="181.561" y="-84.7117" font-family="Times New Roman,serif" font-size="9.00">593</text>
</g>
<!-- 5&#45;&gt;593 -->
<g id="edge8" class="edge"><title>5&#45;&gt;593</title>
<path fill="none" stroke="red" stroke-width="0.392011" d="M165.958,-150.675C168.229,-141.536 171.309,-129.149 174.132,-117.794"/>
<polygon fill="red" stroke="red" stroke-width="0.392011" points="177.606,-118.327 176.622,-107.778 170.812,-116.638 177.606,-118.327"/>
</g>
<!-- 389 -->
<g id="node7" class="node"><title>389</title>
<ellipse fill="white" stroke="black" cx="89.5607" cy="-165.338" rx="21.4286" ry="21.4286"/>
<text text-anchor="middle" x="89.5607" y="-163.138" font-family="Times New Roman,serif" font-size="9.00">389</text>
</g>
<!-- 389&#45;&gt;1 -->
<g id="edge5" class="edge"><title>389&#45;&gt;1</title>
<path fill="none" stroke="green" stroke-width="0.262172" d="M89.5607,-143.857C89.5607,-134.116 89.5607,-122.399 89.5607,-112.211"/>
<polygon fill="green" stroke="green" stroke-width="0.262172" points="93.0608,-111.921 89.5607,-101.921 86.0608,-111.921 93.0608,-111.921"/>
</g>
<!-- 529&#45;&gt;0 -->
<g id="edge7" class="edge"><title>529&#45;&gt;0</title>
<path fill="none" stroke="green" stroke-width="0.5911" d="M47.1802,-68.9515C53.9613,-59.0535 62.5584,-46.5049 69.6925,-36.0917"/>
<polygon fill="green" stroke="green" stroke-width="0.5911" points="72.7384,-37.8385 75.5029,-27.6107 66.9636,-33.8822 72.7384,-37.8385"/>
</g>
<!-- 593&#45;&gt;0 -->
<g id="edge9" class="edge"><title>593&#45;&gt;0</title>
<path fill="none" stroke="red" stroke-width="0.132381" d="M164.49,-73.7077C147.585,-61.6219 121.7,-43.1156 103.775,-30.3012"/>
<polygon fill="red" stroke="red" stroke-width="0.132381" points="105.388,-27.1517 95.2177,-24.1831 101.317,-32.8462 105.388,-27.1517"/>
</g>
</g>
</svg>
