<?xml version="1.0" encoding="UTF-8" standalone="no"?>
<!DOCTYPE svg PUBLIC "-//W3C//DTD SVG 1.1//EN"
 "http://www.w3.org/Graphics/SVG/1.1/DTD/svg11.dtd">
<!-- Generated by graphviz version 2.38.0 (20140413.2041)
 -->
<!-- Title: %3 Pages: 1 -->
<svg width="86pt" height="92pt"
 viewBox="0.00 0.00 85.50 91.70" xmlns="http://www.w3.org/2000/svg" xmlns:xlink="http://www.w3.org/1999/xlink">
<g id="graph0" class="graph" transform="scale(1 1) rotate(0) translate(4 87.6985)">
<title>%3</title>
<polygon fill="white" stroke="none" points="-4,4 -4,-87.6985 81.5,-87.6985 81.5,4 -4,4"/>
<!-- Pos -->
<g id="node1" class="node"><title>Pos</title>
<polygon fill="lightgray" stroke="black" points="30,-83.6985 0,-83.6985 0,-65.6985 30,-65.6985 30,-83.6985"/>
<text text-anchor="middle" x="15" y="-72.4985" font-family="Times New Roman,serif" font-size="9.00">Pos</text>
</g>
<!-- 0 -->
<g id="node3" class="node"><title>0</title>
<ellipse fill="lightblue" stroke="black" cx="39" cy="-14.8492" rx="14.7" ry="14.7"/>
<text text-anchor="middle" x="39" y="-12.6492" font-family="Times New Roman,serif" font-size="9.00">0</text>
</g>
<!-- Pos&#45;&gt;0 -->
<g id="edge2" class="edge"><title>Pos&#45;&gt;0</title>
<path fill="none" stroke="green" stroke-width="0.285755" d="M18.3371,-65.6548C21.2814,-58.5579 25.7155,-47.8701 29.7221,-38.2124"/>
<polygon fill="green" stroke="green" stroke-width="0.285755" points="33.0632,-39.2927 33.6624,-28.7148 26.5975,-36.6102 33.0632,-39.2927"/>
</g>
<!-- Vel -->
<g id="node2" class="node"><title>Vel</title>
<polygon fill="lightgray" stroke="black" points="77.5,-83.6985 48.5,-83.6985 48.5,-65.6985 77.5,-65.6985 77.5,-83.6985"/>
<text text-anchor="middle" x="63" y="-72.4985" font-family="Times New Roman,serif" font-size="9.00">Vel</text>
</g>
<!-- Vel&#45;&gt;0 -->
<g id="edge1" class="edge"><title>Vel&#45;&gt;0</title>
<path fill="none" stroke="green" stroke-width="2.84108" d="M59.6629,-65.6548C56.7186,-58.5579 52.2845,-47.8701 48.2779,-38.2124"/>
<polygon fill="green" stroke="green" stroke-width="2.84108" points="51.4025,-36.6102 44.3376,-28.7148 44.9368,-39.2927 51.4025,-36.6102"/>
</g>
</g>
</svg>
