<?xml version="1.0" encoding="UTF-8" standalone="no"?>
<!DOCTYPE svg PUBLIC "-//W3C//DTD SVG 1.1//EN"
 "http://www.w3.org/Graphics/SVG/1.1/DTD/svg11.dtd">
<!-- Generated by graphviz version 2.38.0 (20140413.2041)
 -->
<!-- Title: %3 Pages: 1 -->
<svg width="158pt" height="157pt"
 viewBox="0.00 0.00 158.00 157.40" xmlns="http://www.w3.org/2000/svg" xmlns:xlink="http://www.w3.org/1999/xlink">
<g id="graph0" class="graph" transform="scale(1 1) rotate(0) translate(4 153.397)">
<title>%3</title>
<polygon fill="white" stroke="none" points="-4,4 -4,-153.397 154,-153.397 154,4 -4,4"/>
<!-- &#45;1 -->
<g id="node1" class="node"><title>&#45;1</title>
<polygon fill="lightgray" stroke="black" points="24,-149.397 0,-149.397 0,-131.397 24,-131.397 24,-149.397"/>
<text text-anchor="middle" x="12" y="-138.197" font-family="Times New Roman,serif" font-size="9.00">&#45;1</text>
</g>
<!-- 4 -->
<g id="node7" class="node"><title>4</title>
<ellipse fill="white" stroke="black" cx="75" cy="-80.5477" rx="14.7" ry="14.7"/>
<text text-anchor="middle" x="75" y="-78.3477" font-family="Times New Roman,serif" font-size="9.00">4</text>
</g>
<!-- &#45;1&#45;&gt;4 -->
<g id="edge1" class="edge"><title>&#45;1&#45;&gt;4</title>
<path fill="none" stroke="red" stroke-width="0.170061" d="M20.7599,-131.353C29.99,-122.878 44.7978,-109.281 56.6111,-98.4332"/>
<polygon fill="red" stroke="red" stroke-width="0.170061" points="59.2072,-100.801 64.2057,-91.4595 54.4727,-95.645 59.2072,-100.801"/>
</g>
<!-- &#45;2 -->
<g id="node2" class="node"><title>&#45;2</title>
<polygon fill="lightgray" stroke="black" points="66,-149.397 42,-149.397 42,-131.397 66,-131.397 66,-149.397"/>
<text text-anchor="middle" x="54" y="-138.197" font-family="Times New Roman,serif" font-size="9.00">&#45;2</text>
</g>
<!-- &#45;2&#45;&gt;4 -->
<g id="edge2" class="edge"><title>&#45;2&#45;&gt;4</title>
<path fill="none" stroke="green" stroke-width="0.175401" d="M56.92,-131.353C59.4627,-124.349 63.2755,-113.846 66.7451,-104.288"/>
<polygon fill="green" stroke="green" stroke-width="0.175401" points="70.0466,-105.45 70.169,-94.8558 63.4667,-103.061 70.0466,-105.45"/>
</g>
<!-- &#45;3 -->
<g id="node3" class="node"><title>&#45;3</title>
<polygon fill="lightgray" stroke="black" points="108,-149.397 84,-149.397 84,-131.397 108,-131.397 108,-149.397"/>
<text text-anchor="middle" x="96" y="-138.197" font-family="Times New Roman,serif" font-size="9.00">&#45;3</text>
</g>
<!-- &#45;3&#45;&gt;4 -->
<g id="edge3" class="edge"><title>&#45;3&#45;&gt;4</title>
<path fill="none" stroke="green" stroke-width="0.390393" d="M93.08,-131.353C90.5373,-124.349 86.7245,-113.846 83.2549,-104.288"/>
<polygon fill="green" stroke="green" stroke-width="0.390393" points="86.5333,-103.061 79.831,-94.8558 79.9534,-105.45 86.5333,-103.061"/>
</g>
<!-- &#45;4 -->
<g id="node4" class="node"><title>&#45;4</title>
<polygon fill="lightgray" stroke="black" points="150,-149.397 126,-149.397 126,-131.397 150,-131.397 150,-149.397"/>
<text text-anchor="middle" x="138" y="-138.197" font-family="Times New Roman,serif" font-size="9.00">&#45;4</text>
</g>
<!-- &#45;4&#45;&gt;4 -->
<g id="edge4" class="edge"><title>&#45;4&#45;&gt;4</title>
<path fill="none" stroke="green" stroke-width="0.436487" d="M129.24,-131.353C120.01,-122.878 105.202,-109.281 93.3889,-98.4332"/>
<polygon fill="green" stroke="green" stroke-width="0.436487" points="95.5273,-95.645 85.7943,-91.4595 90.7928,-100.801 95.5273,-95.645"/>
</g>
<!-- 0 -->
<g id="node5" class="node"><title>0</title>
<ellipse fill="lightblue" stroke="black" cx="51" cy="-14.8492" rx="14.7" ry="14.7"/>
<text text-anchor="middle" x="51" y="-12.6492" font-family="Times New Roman,serif" font-size="9.00">0</text>
</g>
<!-- 1 -->
<g id="node6" class="node"><title>1</title>
<ellipse fill="lightblue" stroke="black" cx="99" cy="-14.8492" rx="14.7" ry="14.7"/>
<text text-anchor="middle" x="99" y="-12.6492" font-family="Times New Roman,serif" font-size="9.00">1</text>
</g>
<!-- 4&#45;&gt;0 -->
<g id="edge5" class="edge"><title>4&#45;&gt;0</title>
<path fill="none" stroke="green" stroke-width="0.673731" d="M70.0272,-66.3494C67.0023,-58.321 63.0576,-47.8514 59.5448,-38.528"/>
<polygon fill="green" stroke="green" stroke-width="0.673731" points="62.7675,-37.1545 55.9664,-29.0307 56.2171,-39.6226 62.7675,-37.1545"/>
</g>
<!-- 4&#45;&gt;1 -->
<g id="edge6" class="edge"><title>4&#45;&gt;1</title>
<path fill="none" stroke="green" stroke-width="0.346582" d="M79.9728,-66.3494C82.9977,-58.321 86.9424,-47.8514 90.4552,-38.528"/>
<polygon fill="green" stroke="green" stroke-width="0.346582" points="93.7829,-39.6226 94.0336,-29.0307 87.2325,-37.1545 93.7829,-39.6226"/>
</g>
</g>
</svg>
