<?xml version="1.0" encoding="UTF-8" standalone="no"?>
<!DOCTYPE svg PUBLIC "-//W3C//DTD SVG 1.1//EN"
 "http://www.w3.org/Graphics/SVG/1.1/DTD/svg11.dtd">
<!-- Generated by graphviz version 2.38.0 (20140413.2041)
 -->
<!-- Title: %3 Pages: 1 -->
<svg width="158pt" height="164pt"
 viewBox="0.00 0.00 158.00 164.47" xmlns="http://www.w3.org/2000/svg" xmlns:xlink="http://www.w3.org/1999/xlink">
<g id="graph0" class="graph" transform="scale(1 1) rotate(0) translate(4 160.468)">
<title>%3</title>
<polygon fill="white" stroke="none" points="-4,4 -4,-160.468 154,-160.468 154,4 -4,4"/>
<!-- &#45;1 -->
<g id="node1" class="node"><title>&#45;1</title>
<polygon fill="lightgray" stroke="black" points="108,-156.468 84,-156.468 84,-138.468 108,-138.468 108,-156.468"/>
<text text-anchor="middle" x="96" y="-145.268" font-family="Times New Roman,serif" font-size="9.00">&#45;1</text>
</g>
<!-- 24 -->
<g id="node7" class="node"><title>24</title>
<ellipse fill="white" stroke="black" cx="47" cy="-84.0833" rx="18.2703" ry="18.2703"/>
<text text-anchor="middle" x="47" y="-81.8833" font-family="Times New Roman,serif" font-size="9.00">24</text>
</g>
<!-- &#45;1&#45;&gt;24 -->
<g id="edge1" class="edge"><title>&#45;1&#45;&gt;24</title>
<path fill="none" stroke="green" stroke-width="0.106434" d="M89.5941,-138.443C83.2271,-130.467 73.1765,-117.876 64.4369,-106.927"/>
<polygon fill="green" stroke="green" stroke-width="0.106434" points="67.0661,-104.611 58.0921,-98.9789 61.5953,-108.978 67.0661,-104.611"/>
</g>
<!-- 25 -->
<g id="node8" class="node"><title>25</title>
<ellipse fill="white" stroke="black" cx="102" cy="-84.0833" rx="18.2703" ry="18.2703"/>
<text text-anchor="middle" x="102" y="-81.8833" font-family="Times New Roman,serif" font-size="9.00">25</text>
</g>
<!-- &#45;1&#45;&gt;25 -->
<g id="edge2" class="edge"><title>&#45;1&#45;&gt;25</title>
<path fill="none" stroke="green" stroke-width="0.474214" d="M96.7844,-138.443C97.4306,-131.832 98.3867,-122.05 99.3044,-112.661"/>
<polygon fill="green" stroke="green" stroke-width="0.474214" points="102.816,-112.71 100.306,-102.417 95.8494,-112.029 102.816,-112.71"/>
</g>
<!-- &#45;2 -->
<g id="node2" class="node"><title>&#45;2</title>
<polygon fill="lightgray" stroke="black" points="150,-156.468 126,-156.468 126,-138.468 150,-138.468 150,-156.468"/>
<text text-anchor="middle" x="138" y="-145.268" font-family="Times New Roman,serif" font-size="9.00">&#45;2</text>
</g>
<!-- &#45;2&#45;&gt;24 -->
<g id="edge3" class="edge"><title>&#45;2&#45;&gt;24</title>
<path fill="none" stroke="green" stroke-width="0.209843" d="M126.103,-138.443C112.073,-128.978 88.4095,-113.016 70.612,-101.011"/>
<polygon fill="green" stroke="green" stroke-width="0.209843" points="72.1692,-97.8395 61.9217,-95.1488 68.2546,-103.643 72.1692,-97.8395"/>
</g>
<!-- &#45;2&#45;&gt;25 -->
<g id="edge4" class="edge"><title>&#45;2&#45;&gt;25</title>
<path fill="none" stroke="red" stroke-width="0.123477" d="M133.294,-138.443C128.93,-131.003 122.212,-119.548 116.118,-109.156"/>
<polygon fill="red" stroke="red" stroke-width="0.123477" points="119.075,-107.28 110.997,-100.425 113.037,-110.821 119.075,-107.28"/>
</g>
<!-- &#45;3 -->
<g id="node3" class="node"><title>&#45;3</title>
<polygon fill="lightgray" stroke="black" points="24,-156.468 0,-156.468 0,-138.468 24,-138.468 24,-156.468"/>
<text text-anchor="middle" x="12" y="-145.268" font-family="Times New Roman,serif" font-size="9.00">&#45;3</text>
</g>
<!-- &#45;3&#45;&gt;24 -->
<g id="edge5" class="edge"><title>&#45;3&#45;&gt;24</title>
<path fill="none" stroke="green" stroke-width="0.335438" d="M16.5756,-138.443C20.8178,-131.003 27.3492,-119.548 33.2744,-109.156"/>
<polygon fill="green" stroke="green" stroke-width="0.335438" points="36.3399,-110.846 38.2527,-100.425 30.259,-107.378 36.3399,-110.846"/>
</g>
<!-- &#45;3&#45;&gt;25 -->
<g id="edge6" class="edge"><title>&#45;3&#45;&gt;25</title>
<path fill="none" stroke="green" stroke-width="0.407996" d="M23.7659,-138.443C37.6425,-128.978 61.0455,-113.016 78.6475,-101.011"/>
<polygon fill="green" stroke="green" stroke-width="0.407996" points="80.953,-103.675 87.2423,-95.1488 77.0087,-97.8921 80.953,-103.675"/>
</g>
<!-- &#45;4 -->
<g id="node4" class="node"><title>&#45;4</title>
<polygon fill="lightgray" stroke="black" points="66,-156.468 42,-156.468 42,-138.468 66,-138.468 66,-156.468"/>
<text text-anchor="middle" x="54" y="-145.268" font-family="Times New Roman,serif" font-size="9.00">&#45;4</text>
</g>
<!-- &#45;4&#45;&gt;24 -->
<g id="edge7" class="edge"><title>&#45;4&#45;&gt;24</title>
<path fill="none" stroke="green" stroke-width="0.329259" d="M53.0849,-138.443C52.3228,-131.761 51.1915,-121.839 50.1103,-112.358"/>
<polygon fill="green" stroke="green" stroke-width="0.329259" points="53.5872,-111.956 48.9767,-102.417 46.6323,-112.749 53.5872,-111.956"/>
</g>
<!-- &#45;4&#45;&gt;25 -->
<g id="edge8" class="edge"><title>&#45;4&#45;&gt;25</title>
<path fill="none" stroke="red" stroke-width="0.20541" d="M60.2752,-138.443C66.5122,-130.467 76.3578,-117.876 84.9189,-106.927"/>
<polygon fill="red" stroke="red" stroke-width="0.20541" points="87.7315,-109.012 91.1343,-98.9789 82.2172,-104.7 87.7315,-109.012"/>
</g>
<!-- 0 -->
<g id="node5" class="node"><title>0</title>
<ellipse fill="lightblue" stroke="black" cx="50" cy="-14.8492" rx="14.7" ry="14.7"/>
<text text-anchor="middle" x="50" y="-12.6492" font-family="Times New Roman,serif" font-size="9.00">0</text>
</g>
<!-- 1 -->
<g id="node6" class="node"><title>1</title>
<ellipse fill="lightblue" stroke="black" cx="100" cy="-14.8492" rx="14.7" ry="14.7"/>
<text text-anchor="middle" x="100" y="-12.6492" font-family="Times New Roman,serif" font-size="9.00">1</text>
</g>
<!-- 24&#45;&gt;0 -->
<g id="edge9" class="edge"><title>24&#45;&gt;0</title>
<path fill="none" stroke="green" stroke-width="0.382513" d="M47.7882,-65.4183C48.1349,-57.6491 48.5476,-48.4001 48.9221,-40.0073"/>
<polygon fill="green" stroke="green" stroke-width="0.382513" points="52.4188,-40.1564 49.3681,-30.0103 45.4258,-39.8443 52.4188,-40.1564"/>
</g>
<!-- 24&#45;&gt;1 -->
<g id="edge10" class="edge"><title>24&#45;&gt;1</title>
<path fill="none" stroke="red" stroke-width="0.396054" d="M57.9816,-69.1523C65.7332,-59.3189 76.22,-46.0157 84.7778,-35.1596"/>
<polygon fill="red" stroke="red" stroke-width="0.396054" points="87.6962,-37.111 91.1383,-27.0909 82.1989,-32.7775 87.6962,-37.111"/>
</g>
<!-- 25&#45;&gt;0 -->
<g id="edge11" class="edge"><title>25&#45;&gt;0</title>
<path fill="none" stroke="red" stroke-width="0.399231" d="M91.2256,-69.1523C83.6202,-59.3189 73.3313,-46.0157 64.935,-35.1596"/>
<polygon fill="red" stroke="red" stroke-width="0.399231" points="67.581,-32.8598 58.6945,-27.0909 62.0438,-37.1424 67.581,-32.8598"/>
</g>
<!-- 25&#45;&gt;1 -->
<g id="edge12" class="edge"><title>25&#45;&gt;1</title>
<path fill="none" stroke="red" stroke-width="0.392405" d="M101.475,-65.4183C101.243,-57.6491 100.968,-48.4001 100.719,-40.0073"/>
<polygon fill="red" stroke="red" stroke-width="0.392405" points="104.217,-39.9018 100.421,-30.0103 97.2202,-40.11 104.217,-39.9018"/>
</g>
</g>
</svg>
